<mxGraphModel dx="1271" dy="2400" grid="1" gridSize="10" guides="1" tooltips="1" connect="1" arrows="1" fold="1" page="1" pageScale="1" pageWidth="850" pageHeight="1100" math="0" shadow="0">
  <root>
    <mxCell id="0" />
    <mxCell id="1" parent="0" />
    
    <!-- Program Main: main() -->
    <mxCell id="M0" value="โปรแกรมหลัก : main()" style="text;html=1;strokeColor=none;fillColor=none;align=center;verticalAlign=middle;whiteSpace=wrap;rounded=0;fontStyle=1;fontSize=14;" vertex="1" parent="1">
      <mxGeometry x="10" y="10" width="200" height="20" as="geometry" />
    </mxCell>
    <mxCell id="M1" value="เริ่มต้น (Start)" style="ellipse;whiteSpace=wrap;html=1;fillColor=#6a329f;fontColor=#ffffff;strokeColor=#371960;" vertex="1" parent="1">
      <mxGeometry x="50" y="40" width="120" height="40" as="geometry" />
    </mxCell>
    <mxCell id="M2" value="Process: ประกาศ arr[100], count=0, input" style="shape=rectangle;whiteSpace=wrap;html=1;fillColor=#dae8fc;strokeColor=#6c8ebf;" vertex="1" parent="1">
      <mxGeometry x="30" y="110" width="160" height="40" as="geometry" />
    </mxCell>
    <mxCell id="M3" value="Output: แสดงข้อความ &quot;Enter value:&quot;" style="shape=parallelogram;perimeter=parallelogramPerimeter;whiteSpace=wrap;html=1;fillColor=#fff2cc;strokeColor=#d6b656;" vertex="1" parent="1">
      <mxGeometry x="30" y="180" width="160" height="40" as="geometry" />
    </mxCell>
    
    <!-- Input Loop -->
    <mxCell id="M4" value="Condition: รับค่า input สำเร็จ และ count &lt; MAX_SIZE ?" style="rhombus;whiteSpace=wrap;html=1;fillColor=#f8cecc;strokeColor=#b85450;" vertex="1" parent="1">
      <mxGeometry x="20" y="270" width="180" height="80" as="geometry" />
    </mxCell>
    <mxCell id="M5" value="Process: arr[count] = input" style="shape=rectangle;whiteSpace=wrap;html=1;fillColor=#dae8fc;strokeColor=#6c8ebf;" vertex="1" parent="1">
      <mxGeometry x="230" y="280" width="120" height="40" as="geometry" />
    </mxCell>
    <mxCell id="M6" value="Process: count = count + 1" style="shape=rectangle;whiteSpace=wrap;html=1;fillColor=#dae8fc;strokeColor=#6c8ebf;" vertex="1" parent="1">
      <mxGeometry x="390" y="280" width="120" height="40" as="geometry" />
    </mxCell>
    
    <!-- End Input Loop -->
    <mxCell id="M7" value="Condition: count == 0 ?" style="rhombus;whiteSpace=wrap;html=1;fillColor=#f8cecc;strokeColor=#b85450;" vertex="1" parent="1">
      <mxGeometry x="50" y="380" width="120" height="60" as="geometry" />
    </mxCell>
    <mxCell id="M8" value="Output: แสดงข้อความ &quot;No values entered.&quot;" style="shape=parallelogram;perimeter=parallelogramPerimeter;whiteSpace=wrap;html=1;fillColor=#fff2cc;strokeColor=#d6b656;" vertex="1" parent="1">
      <mxGeometry x="10" y="460" width="200" height="40" as="geometry" />
    </mxCell>
    <mxCell id="M9" value="Process: คืนค่า 0" style="shape=rectangle;whiteSpace=wrap;html=1;fillColor=#dae8fc;strokeColor=#6c8ebf;" vertex="1" parent="1">
      <mxGeometry x="50" y="520" width="120" height="40" as="geometry" />
    </mxCell>
    <mxCell id="M10" value="สิ้นสุด (Stop)" style="ellipse;whiteSpace=wrap;html=1;fillColor=#6a329f;fontColor=#ffffff;strokeColor=#371960;" vertex="1" parent="1">
      <mxGeometry x="50" y="580" width="120" height="40" as="geometry" />
    </mxCell>
    
    <!-- Normal Flow after Input -->
    <mxCell id="M11" value="Output: แสดงข้อความ &quot;Index:&quot;" style="shape=parallelogram;perimeter=parallelogramPerimeter;whiteSpace=wrap;html=1;fillColor=#fff2cc;strokeColor=#d6b656;" vertex="1" parent="1">
      <mxGeometry x="30" y="470" width="160" height="40" as="geometry" />
    </mxCell>
    <mxCell id="M12" value="Process: กำหนดตัวแปร Loop i = 0" style="shape=rectangle;whiteSpace=wrap;html=1;fillColor=#dae8fc;strokeColor=#6c8ebf;" vertex="1" parent="1">
      <mxGeometry x="30" y="540" width="160" height="40" as="geometry" />
    </mxCell>
    
    <!-- Index Print Loop -->
    <mxCell id="M13" value="Condition: i &lt; count ?" style="rhombus;whiteSpace=wrap;html=1;fillColor=#f8cecc;strokeColor=#b85450;" vertex="1" parent="1">
      <mxGeometry x="50" y="610" width="120" height="60" as="geometry" />
    </mxCell>
    <mxCell id="M14" value="Output: แสดงค่า i" style="shape=parallelogram;perimeter=parallelogramPerimeter;whiteSpace=wrap;html=1;fillColor=#fff2cc;strokeColor=#d6b656;" vertex="1" parent="1">
      <mxGeometry x="230" y="620" width="120" height="40" as="geometry" />
    </mxCell>
    <mxCell id="M15" value="Process: i = i + 1" style="shape=rectangle;whiteSpace=wrap;html=1;fillColor=#dae8fc;strokeColor=#6c8ebf;" vertex="1" parent="1">
      <mxGeometry x="390" y="620" width="120" height="40" as="geometry" />
    </mxCell>
    
    <!-- End Index Print Loop -->
    <mxCell id="M16" value="Output: ขึ้นบรรทัดใหม่" style="shape=parallelogram;perimeter=parallelogramPerimeter;whiteSpace=wrap;html=1;fillColor=#fff2cc;strokeColor=#d6b656;" vertex="1" parent="1">
      <mxGeometry x="30" y="700" width="160" height="40" as="geometry" />
    </mxCell>
    <mxCell id="M17" value="Output: แสดงข้อความ &quot;Array:&quot;" style="shape=parallelogram;perimeter=parallelogramPerimeter;whiteSpace=wrap;html=1;fillColor=#fff2cc;strokeColor=#d6b656;" vertex="1" parent="1">
      <mxGeometry x="30" y="770" width="160" height="40" as="geometry" />
    </mxCell>
    <mxCell id="M18" value="Process: กำหนดตัวแปร Loop i = 0" style="shape=rectangle;whiteSpace=wrap;html=1;fillColor=#dae8fc;strokeColor=#6c8ebf;" vertex="1" parent="1">
      <mxGeometry x="30" y="840" width="160" height="40" as="geometry" />
    </mxCell>
    
    <!-- Array Print Loop -->
    <mxCell id="M19" value="Condition: i &lt; count ?" style="rhombus;whiteSpace=wrap;html=1;fillColor=#f8cecc;strokeColor=#b85450;" vertex="1" parent="1">
      <mxGeometry x="50" y="910" width="120" height="60" as="geometry" />
    </mxCell>
    <mxCell id="M20" value="Output: แสดงค่า arr[i]" style="shape=parallelogram;perimeter=parallelogramPerimeter;whiteSpace=wrap;html=1;fillColor=#fff2cc;strokeColor=#d6b656;" vertex="1" parent="1">
      <mxGeometry x="230" y="920" width="120" height="40" as="geometry" />
    </mxCell>
    <mxCell id="M21" value="Process: i = i + 1" style="shape=rectangle;whiteSpace=wrap;html=1;fillColor=#dae8fc;strokeColor=#6c8ebf;" vertex="1" parent="1">
      <mxGeometry x="390" y="920" width="120" height="40" as="geometry" />
    </mxCell>

    <!-- End Array Print Loop -->
    <mxCell id="M22" value="Output: ขึ้นบรรทัดใหม่" style="shape=parallelogram;perimeter=parallelogramPerimeter;whiteSpace=wrap;html=1;fillColor=#fff2cc;strokeColor=#d6b656;" vertex="1" parent="1">
      <mxGeometry x="30" y="1000" width="160" height="40" as="geometry" />
    </mxCell>
    <mxCell id="M23" value="Function: เรียก findMin(arr, count) &amp; เก็บใน minValue" style="shape=process;whiteSpace=wrap;html=1;fillColor=#d5e8d4;strokeColor=#82b366;" vertex="1" parent="1">
      <mxGeometry x="10" y="1070" width="200" height="40" as="geometry" />
    </mxCell>
    <mxCell id="M24" value="Function: เรียก findMax(arr, count) &amp; เก็บใน maxValue" style="shape=process;whiteSpace=wrap;html=1;fillColor=#d5e8d4;strokeColor=#82b366;" vertex="1" parent="1">
      <mxGeometry x="10" y="1140" width="200" height="40" as="geometry" />
    </mxCell>
    <mxCell id="M25" value="Output: แสดงค่า minValue (Min)" style="shape=parallelogram;perimeter=parallelogramPerimeter;whiteSpace=wrap;html=1;fillColor=#fff2cc;strokeColor=#d6b656;" vertex="1" parent="1">
      <mxGeometry x="30" y="1210" width="160" height="40" as="geometry" />
    </mxCell>
    <mxCell id="M26" value="Output: แสดงค่า maxValue (Max)" style="shape=parallelogram;perimeter=parallelogramPerimeter;whiteSpace=wrap;html=1;fillColor=#fff2cc;strokeColor=#d6b656;" vertex="1" parent="1">
      <mxGeometry x="30" y="1280" width="160" height="40" as="geometry" />
    </mxCell>
    <mxCell id="M27" value="Process: คืนค่า 0" style="shape=rectangle;whiteSpace=wrap;html=1;fillColor=#dae8fc;strokeColor=#6c8ebf;" vertex="1" parent="1">
      <mxGeometry x="50" y="1350" width="120" height="40" as="geometry" />
    </mxCell>
    <mxCell id="M28" value="สิ้นสุด (Stop)" style="ellipse;whiteSpace=wrap;html=1;fillColor=#6a329f;fontColor=#ffffff;strokeColor=#371960;" vertex="1" parent="1">
      <mxGeometry x="50" y="1420" width="120" height="40" as="geometry" />
    </mxCell>

    <!-- Main Connectors -->
    <mxCell id="MC1" value="" style="endArrow=classic;html=1;exitX=0.5;exitY=1;entryX=0.5;entryY=0;" edge="1" parent="1" source="M1" target="M2" />
    <mxCell id="MC2" value="" style="endArrow=classic;html=1;exitX=0.5;exitY=1;entryX=0.5;entryY=0;" edge="1" parent="1" source="M2" target="M3" />
    <mxCell id="MC3" value="" style="endArrow=classic;html=1;exitX=0.5;exitY=1;entryX=0.5;entryY=0;" edge="1" parent="1" source="M3" target="M4" />
    
    <!-- Input Loop Flow -->
    <mxCell id="MC4" value="จริง" style="edgeStyle=orthogonalEdgeStyle;html=1;align=left;verticalAlign=bottom;" edge="1" parent="1" source="M4" target="M5">
      <mxGeometry relative="1" as="geometry">
        <mxPoint x="200" y="310" as="sourcePoint" />
      </mxGeometry>
    </mxCell>
    <mxCell id="MC5" value="" style="endArrow=classic;html=1;exitX=1;exitY=0.5;entryX=0;entryY=0.5;" edge="1" parent="1" source="M5" target="M6" />
    <mxCell id="MC6" value="" style="endArrow=classic;html=1;" edge="1" parent="1" source="M6" target="M4">
      <mxGeometry relative="1" as="geometry">
        <mxPoint x="360" y="270" as="sourcePoint" />
        <Array as="points">
          <mxPoint x="550" y="300" />
          <mxPoint x="550" y="230" />
          <mxPoint x="100" y="230" />
        </Array>
      </mxGeometry>
    </mxCell>
    
    <!-- End Input Loop Flow -->
    <mxCell id="MC7" value="เท็จ" style="endArrow=classic;html=1;exitX=0.5;exitY=1;entryX=0.5;entryY=0;align=left;verticalAlign=top;" edge="1" parent="1" source="M4" target="M7">
      <mxGeometry relative="1" as="geometry">
        <mxPoint x="100" y="380" as="sourcePoint" />
      </mxGeometry>
    </mxCell>
    
    <!-- count == 0 Check -->
    <mxCell id="MC8" value="จริง" style="endArrow=classic;html=1;exitX=0;exitY=0.5;entryX=0.5;entryY=0;" edge="1" parent="1" source="M7" target="M8">
      <mxGeometry relative="1" as="geometry">
        <mxPoint x="40" y="410" as="sourcePoint" />
        <Array as="points">
          <mxPoint x="30" y="410" />
          <mxPoint x="30" y="460" />
        </Array>
      </mxGeometry>
    </mxCell>
    <mxCell id="MC9" value="" style="endArrow=classic;html=1;exitX=0.5;exitY=1;entryX=0.5;entryY=0;" edge="1" parent="1" source="M8" target="M9" />
    <mxCell id="MC10" value="" style="endArrow=classic;html=1;exitX=0.5;exitY=1;entryX=0.5;entryY=0;" edge="1" parent="1" source="M9" target="M10" />
    
    <mxCell id="MC11" value="เท็จ" style="endArrow=classic;html=1;exitX=1;exitY=0.5;entryX=0.5;entryY=0;" edge="1" parent="1" source="M7" target="M11">
      <mxGeometry relative="1" as="geometry">
        <mxPoint x="190" y="410" as="sourcePoint" />
        <Array as="points">
          <mxPoint x="220" y="410" />
          <mxPoint x="220" y="490" />
          <mxPoint x="110" y="490" />
        </Array>
      </mxGeometry>
    </mxCell>
    <mxCell id="MC12" value="" style="endArrow=classic;html=1;exitX=0.5;exitY=1;entryX=0.5;entryY=0;" edge="1" parent="1" source="M11" target="M12" />
    <mxCell id="MC13" value="" style="endArrow=classic;html=1;exitX=0.5;exitY=1;entryX=0.5;entryY=0;" edge="1" parent="1" source="M12" target="M13" />
    
    <!-- Index Print Loop Flow -->
    <mxCell id="MC14" value="จริง" style="edgeStyle=orthogonalEdgeStyle;html=1;align=left;verticalAlign=bottom;" edge="1" parent="1" source="M13" target="M14">
      <mxGeometry relative="1" as="geometry">
        <mxPoint x="200" y="640" as="sourcePoint" />
      </mxGeometry>
    </mxCell>
    <mxCell id="MC15" value="" style="endArrow=classic;html=1;exitX=1;exitY=0.5;entryX=0;entryY=0.5;" edge="1" parent="1" source="M14" target="M15" />
    <mxCell id="MC16" value="" style="endArrow=classic;html=1;" edge="1" parent="1" source="M15" target="M13">
      <mxGeometry relative="1" as="geometry">
        <mxPoint x="360" y="580" as="sourcePoint" />
        <Array as="points">
          <mxPoint x="550" y="640" />
          <mxPoint x="550" y="580" />
          <mxPoint x="110" y="580" />
        </Array>
      </mxGeometry>
    </mxCell>
    <mxCell id="MC17" value="เท็จ" style="endArrow=classic;html=1;exitX=0.5;exitY=1;entryX=0.5;entryY=0;" edge="1" parent="1" source="M13" target="M16" />
    <mxCell id="MC18" value="" style="endArrow=classic;html=1;exitX=0.5;exitY=1;entryX=0.5;entryY=0;" edge="1" parent="1" source="M16" target="M17" />
    <mxCell id="MC19" value="" style="endArrow=classic;html=1;exitX=0.5;exitY=1;entryX=0.5;entryY=0;" edge="1" parent="1" source="M17" target="M18" />
    <mxCell id="MC20" value="" style="endArrow=classic;html=1;exitX=0.5;exitY=1;entryX=0.5;entryY=0;" edge="1" parent="1" source="M18" target="M19" />

    <!-- Array Print Loop Flow -->
    <mxCell id="MC21" value="จริง" style="edgeStyle=orthogonalEdgeStyle;html=1;align=left;verticalAlign=bottom;" edge="1" parent="1" source="M19" target="M20">
      <mxGeometry relative="1" as="geometry">
        <mxPoint x="200" y="940" as="sourcePoint" />
      </mxGeometry>
    </mxCell>
    <mxCell id="MC22" value="" style="endArrow=classic;html=1;exitX=1;exitY=0.5;entryX=0;entryY=0.5;" edge="1" parent="1" source="M20" target="M21" />
    <mxCell id="MC23" value="" style="endArrow=classic;html=1;" edge="1" parent="1" source="M21" target="M19">
      <mxGeometry relative="1" as="geometry">
        <mxPoint x="360" y="880" as="sourcePoint" />
        <Array as="points">
          <mxPoint x="550" y="940" />
          <mxPoint x="550" y="880" />
          <mxPoint x="110" y="880" />
        </Array>
      </mxGeometry>
    </mxCell>
    
    <!-- End Array Print Loop Flow -->
    <mxCell id="MC24" value="เท็จ" style="endArrow=classic;html=1;exitX=0.5;exitY=1;entryX=0.5;entryY=0;" edge="1" parent="1" source="M19" target="M22" />
    <mxCell id="MC25" value="" style="endArrow=classic;html=1;exitX=0.5;exitY=1;entryX=0.5;entryY=0;" edge="1" parent="1" source="M22" target="M23" />
    <mxCell id="MC26" value="" style="endArrow=classic;html=1;exitX=0.5;exitY=1;entryX=0.5;entryY=0;" edge="1" parent="1" source="M23" target="M24" />
    <mxCell id="MC27" value="" style="endArrow=classic;html=1;exitX=0.5;exitY=1;entryX=0.5;entryY=0;" edge="1" parent="1" source="M24" target="M25" />
    <mxCell id="MC28" value="" style="endArrow=classic;html=1;exitX=0.5;exitY=1;entryX=0.5;entryY=0;" edge="1" parent="1" source="M25" target="M26" />
    <mxCell id="MC29" value="" style="endArrow=classic;html=1;exitX=0.5;exitY=1;entryX=0.5;entryY=0;" edge="1" parent="1" source="M26" target="M27" />
    <mxCell id="MC30" value="" style="endArrow=classic;html=1;exitX=0.5;exitY=1;entryX=0.5;entryY=0;" edge="1" parent="1" source="M27" target="M28" />

    <!-- Function 1: findMax(arr, size) -->
    <mxCell id="F1_0" value="ฟังก์ชันย่อย: findMax(arr, size)" style="text;html=1;strokeColor=none;fillColor=none;align=center;verticalAlign=middle;whiteSpace=wrap;rounded=0;fontStyle=1;fontSize=14;" vertex="1" parent="1">
      <mxGeometry x="600" y="10" width="200" height="20" as="geometry" />
    </mxCell>
    <mxCell id="F1_1" value="เริ่มต้น (Function)" style="ellipse;whiteSpace=wrap;html=1;fillColor=#6a329f;fontColor=#ffffff;strokeColor=#371960;" vertex="1" parent="1">
      <mxGeometry x="640" y="40" width="120" height="40" as="geometry" />
    </mxCell>
    <mxCell id="F1_2" value="Process: กำหนด max = ค่าต่ำสุดที่เป็นไปได้ (INT_MIN)" style="shape=rectangle;whiteSpace=wrap;html=1;fillColor=#dae8fc;strokeColor=#6c8ebf;" vertex="1" parent="1">
      <mxGeometry x="610" y="110" width="180" height="40" as="geometry" />
    </mxCell>
    <mxCell id="F1_3" value="Process: กำหนดตัวแปร Loop i = 0" style="shape=rectangle;whiteSpace=wrap;html=1;fillColor=#dae8fc;strokeColor=#6c8ebf;" vertex="1" parent="1">
      <mxGeometry x="620" y="180" width="160" height="40" as="geometry" />
    </mxCell>
    
    <!-- findMax Loop -->
    <mxCell id="F1_4" value="Condition: i &lt; size ?" style="rhombus;whiteSpace=wrap;html=1;fillColor=#f8cecc;strokeColor=#b85450;" vertex="1" parent="1">
      <mxGeometry x="640" y="250" width="120" height="60" as="geometry" />
    </mxCell>
    <mxCell id="F1_5" value="Condition: arr[i] &gt; max ?" style="rhombus;whiteSpace=wrap;html=1;fillColor=#f8cecc;strokeColor=#b85450;" vertex="1" parent="1">
      <mxGeometry x="640" y="360" width="120" height="60" as="geometry" />
    </mxCell>
    <mxCell id="F1_6" value="Process: max = arr[i]" style="shape=rectangle;whiteSpace=wrap;html=1;fillColor=#dae8fc;strokeColor=#6c8ebf;" vertex="1" parent="1">
      <mxGeometry x="780" y="370" width="120" height="40" as="geometry" />
    </mxCell>
    <mxCell id="F1_7" value="Process: i = i + 1" style="shape=rectangle;whiteSpace=wrap;html=1;fillColor=#dae8fc;strokeColor=#6c8ebf;" vertex="1" parent="1">
      <mxGeometry x="640" y="480" width="120" height="40" as="geometry" />
    </mxCell>
    
    <!-- End findMax Loop -->
    <mxCell id="F1_8" value="Process: คืนค่า max" style="shape=rectangle;whiteSpace=wrap;html=1;fillColor=#dae8fc;strokeColor=#6c8ebf;" vertex="1" parent="1">
      <mxGeometry x="640" y="550" width="120" height="40" as="geometry" />
    </mxCell>
    <mxCell id="F1_9" value="สิ้นสุด (Stop Function)" style="ellipse;whiteSpace=wrap;html=1;fillColor=#6a329f;fontColor=#ffffff;strokeColor=#371960;" vertex="1" parent="1">
      <mxGeometry x="640" y="620" width="120" height="40" as="geometry" />
    </mxCell>

    <!-- findMax Connectors -->
    <mxCell id="F1_C1" value="" style="endArrow=classic;html=1;exitX=0.5;exitY=1;entryX=0.5;entryY=0;" edge="1" parent="1" source="F1_1" target="F1_2" />
    <mxCell id="F1_C2" value="" style="endArrow=classic;html=1;exitX=0.5;exitY=1;entryX=0.5;entryY=0;" edge="1" parent="1" source="F1_2" target="F1_3" />
    <mxCell id="F1_C3" value="" style="endArrow=classic;html=1;exitX=0.5;exitY=1;entryX=0.5;entryY=0;" edge="1" parent="1" source="F1_3" target="F1_4" />
    <mxCell id="F1_C4" value="เท็จ" style="endArrow=classic;html=1;exitX=0.5;exitY=1;entryX=0.5;entryY=0;align=right;verticalAlign=top;" edge="1" parent="1" source="F1_4" target="F1_8" />
    <mxCell id="F1_C5" value="จริง" style="endArrow=classic;html=1;exitX=0.5;exitY=1;entryX=0.5;entryY=0;align=left;verticalAlign=bottom;" edge="1" parent="1" source="F1_4" target="F1_5" />
    <mxCell id="F1_C6" value="จริง" style="endArrow=classic;html=1;exitX=1;exitY=0.5;entryX=0;entryY=0.5;align=left;verticalAlign=bottom;" edge="1" parent="1" source="F1_5" target="F1_6" />
    <mxCell id="F1_C7" value="" style="endArrow=classic;html=1;" edge="1" parent="1" source="F1_6" target="F1_7">
      <mxGeometry relative="1" as="geometry">
        <mxPoint x="840" y="440" as="sourcePoint" />
        <Array as="points">
          <mxPoint x="840" y="490" />
          <mxPoint x="700" y="490" />
        </Array>
      </mxGeometry>
    </mxCell>
    <mxCell id="F1_C8" value="เท็จ" style="endArrow=classic;html=1;exitX=0.5;exitY=1;entryX=0.5;entryY=0;align=right;verticalAlign=top;" edge="1" parent="1" source="F1_5" target="F1_7">
      <mxGeometry relative="1" as="geometry">
        <mxPoint x="700" y="440" as="sourcePoint" />
      </mxGeometry>
    </mxCell>
    <mxCell id="F1_C9" value="" style="endArrow=classic;html=1;exitX=0.5;exitY=0;entryX=0.5;entryY=1;" edge="1" parent="1" source="F1_7" target="F1_4">
      <mxGeometry relative="1" as="geometry">
        <mxPoint x="700" y="440" as="sourcePoint" />
        <Array as="points">
          <mxPoint x="700" y="200" />
          <mxPoint x="600" y="200" />
          <mxPoint x="600" y="280" />
        </Array>
      </mxGeometry>
    </mxCell>
    <mxCell id="F1_C10" value="" style="endArrow=classic;html=1;exitX=0.5;exitY=1;entryX=0.5;entryY=0;" edge="1" parent="1" source="F1_8" target="F1_9" />

    <!-- Function 2: findMin(arr, size) -->
    <mxCell id="F2_0" value="ฟังก์ชันย่อย: findMin(arr, size)" style="text;html=1;strokeColor=none;fillColor=none;align=center;verticalAlign=middle;whiteSpace=wrap;rounded=0;fontStyle=1;fontSize=14;" vertex="1" parent="1">
      <mxGeometry x="600" y="700" width="200" height="20" as="geometry" />
    </mxCell>
    <mxCell id="F2_1" value="เริ่มต้น (Function)" style="ellipse;whiteSpace=wrap;html=1;fillColor=#6a329f;fontColor=#ffffff;strokeColor=#371960;" vertex="1" parent="1">
      <mxGeometry x="640" y="730" width="120" height="40" as="geometry" />
    </mxCell>
    <mxCell id="F2_2" value="Process: กำหนด min = ค่าสูงสุดที่เป็นไปได้ (INT_MAX)" style="shape=rectangle;whiteSpace=wrap;html=1;fillColor=#dae8fc;strokeColor=#6c8ebf;" vertex="1" parent="1">
      <mxGeometry x="610" y="800" width="180" height="40" as="geometry" />
    </mxCell>
    <mxCell id="F2_3" value="Process: กำหนดตัวแปร Loop i = 0" style="shape=rectangle;whiteSpace=wrap;html=1;fillColor=#dae8fc;strokeColor=#6c8ebf;" vertex="1" parent="1">
      <mxGeometry x="620" y="870" width="160" height="40" as="geometry" />
    </mxCell>
    
    <!-- findMin Loop -->
    <mxCell id="F2_4" value="Condition: i &lt; size ?" style="rhombus;whiteSpace=wrap;html=1;fillColor=#f8cecc;strokeColor=#b85450;" vertex="1" parent="1">
      <mxGeometry x="640" y="940" width="120" height="60" as="geometry" />
    </mxCell>
    <mxCell id="F2_5" value="Condition: arr[i] &lt; min ?" style="rhombus;whiteSpace=wrap;html=1;fillColor=#f8cecc;strokeColor=#b85450;" vertex="1" parent="1">
      <mxGeometry x="640" y="1050" width="120" height="60" as="geometry" />
    </mxCell>
    <mxCell id="F2_6" value="Process: min = arr[i]" style="shape=rectangle;whiteSpace=wrap;html=1;fillColor=#dae8fc;strokeColor=#6c8ebf;" vertex="1" parent="1">
      <mxGeometry x="780" y="1060" width="120" height="40" as="geometry" />
    </mxCell>
    <mxCell id="F2_7" value="Process: i = i + 1" style="shape=rectangle;whiteSpace=wrap;html=1;fillColor=#dae8fc;strokeColor=#6c8ebf;" vertex="1" parent="1">
      <mxGeometry x="640" y="1170" width="120" height="40" as="geometry" />
    </mxCell>
    
    <!-- End findMin Loop -->
    <mxCell id="F2_8" value="Process: คืนค่า min" style="shape=rectangle;whiteSpace=wrap;html=1;fillColor=#dae8fc;strokeColor=#6c8ebf;" vertex="1" parent="1">
      <mxGeometry x="640" y="1240" width="120" height="40" as="geometry" />
    </mxCell>
    <mxCell id="F2_9" value="สิ้นสุด (Stop Function)" style="ellipse;whiteSpace=wrap;html=1;fillColor=#6a329f;fontColor=#ffffff;strokeColor=#371960;" vertex="1" parent="1">
      <mxGeometry x="640" y="1310" width="120" height="40" as="geometry" />
    </mxCell>

    <!-- findMin Connectors -->
    <mxCell id="F2_C1" value="" style="endArrow=classic;html=1;exitX=0.5;exitY=1;entryX=0.5;entryY=0;" edge="1" parent="1" source="F2_1" target="F2_2" />
    <mxCell id="F2_C2" value="" style="endArrow=classic;html=1;exitX=0.5;exitY=1;entryX=0.5;entryY=0;" edge="1" parent="1" source="F2_2" target="F2_3" />
    <mxCell id="F2_C3" value="" style="endArrow=classic;html=1;exitX=0.5;exitY=1;entryX=0.5;entryY=0;" edge="1" parent="1" source="F2_3" target="F2_4" />
    <mxCell id="F2_C4" value="เท็จ" style="endArrow=classic;html=1;exitX=0.5;exitY=1;entryX=0.5;entryY=0;align=right;verticalAlign=top;" edge="1" parent="1" source="F2_4" target="F2_8" />
    <mxCell id="F2_C5" value="จริง" style="endArrow=classic;html=1;exitX=0.5;exitY=1;entryX=0.5;entryY=0;align=left;verticalAlign=bottom;" edge="1" parent="1" source="F2_4" target="F2_5" />
    <mxCell id="F2_C6" value="จริง" style="endArrow=classic;html=1;exitX=1;exitY=0.5;entryX=0;entryY=0.5;align=left;verticalAlign=bottom;" edge="1" parent="1" source="F2_5" target="F2_6" />
    <mxCell id="F2_C7" value="" style="endArrow=classic;html=1;" edge="1" parent="1" source="F2_6" target="F2_7">
      <mxGeometry relative="1" as="geometry">
        <mxPoint x="840" y="1130" as="sourcePoint" />
        <Array as="points">
          <mxPoint x="840" y="1180" />
          <mxPoint x="700" y="1180" />
        </Array>
      </mxGeometry>
    </mxCell>
    <mxCell id="F2_C8" value="เท็จ" style="endArrow=classic;html=1;exitX=0.5;exitY=1;entryX=0.5;entryY=0;align=right;verticalAlign=top;" edge="1" parent="1" source="F2_5" target="F2_7">
      <mxGeometry relative="1" as="geometry">
        <mxPoint x="700" y="1130" as="sourcePoint" />
      </mxGeometry>
    </mxCell>
    <mxCell id="F2_C9" value="" style="endArrow=classic;html=1;exitX=0.5;exitY=0;entryX=0.5;entryY=1;" edge="1" parent="1" source="F2_7" target="F2_4">
      <mxGeometry relative="1" as="geometry">
        <mxPoint x="700" y="1130" as="sourcePoint" />
        <Array as="points">
          <mxPoint x="700" y="890" />
          <mxPoint x="600" y="890" />
          <mxPoint x="600" y="970" />
        </Array>
      </mxGeometry>
    </mxCell>
    <mxCell id="F2_C10" value="" style="endArrow=classic;html=1;exitX=0.5;exitY=1;entryX=0.5;entryY=0;" edge="1" parent="1" source="F2_8" target="F2_9" />
  </root>
</mxGraphModel>
